<?xml version="1.0" encoding="UTF-8" standalone="no"?>
<!DOCTYPE svg PUBLIC "-//W3C//DTD SVG 1.1//EN" "http://www.w3.org/Graphics/SVG/1.1/DTD/svg11.dtd">
<svg width="100%" height="100%" viewBox="0 0 700 950" version="1.1" xmlns="http://www.w3.org/2000/svg" xmlns:xlink="http://www.w3.org/1999/xlink" xml:space="preserve" xmlns:serif="http://www.serif.com/" style="fill-rule:evenodd;clip-rule:evenodd;stroke-linejoin:round;stroke-miterlimit:2;">
    <g transform="matrix(0.0942615,0,0,0.0942615,61.937,277.529)">
        <g>
            <g>
                <g transform="matrix(2.82476,0,0,2.97428,1610.48,-78.3729)">
                    <g transform="matrix(0.451465,0,0,0.46538,187.894,498.899)">
                        <path d="M129.523,500L249.462,500L249.462,493.849L135.674,493.849L135.674,275.499L129.523,275.499L129.523,500Z" style="fill-rule:nonzero;"/>
                    </g>
                    <g transform="matrix(0.451465,0,0,0.45601,187.894,501.481)">
                        <path d="M360.175,498.462C314.045,498.462 286.366,470.784 286.366,423.116L286.366,275.499L280.216,275.499L280.216,423.116C280.216,473.859 310.969,504.613 360.175,504.613C409.381,504.613 440.134,473.859 440.134,423.116L440.134,275.499L433.983,275.499L433.983,423.116C433.983,470.784 406.305,498.462 360.175,498.462Z" style="fill-rule:nonzero;"/>
                    </g>
                    <g transform="matrix(0.451465,0,0,0.46538,578.39,498.899)">
                        <path d="M129.523,500L249.462,500L249.462,493.849L135.674,493.849L135.674,275.499L129.523,275.499L129.523,500Z" style="fill-rule:nonzero;"/>
                    </g>
                    <g transform="matrix(0.451465,0,0,0.45601,578.39,501.481)">
                        <path d="M360.175,498.462C314.045,498.462 286.366,470.784 286.366,423.116L286.366,275.499L280.216,275.499L280.216,423.116C280.216,473.859 310.969,504.613 360.175,504.613C409.381,504.613 440.134,473.859 440.134,423.116L440.134,275.499L433.983,275.499L433.983,423.116C433.983,470.784 406.305,498.462 360.175,498.462Z" style="fill-rule:nonzero;"/>
                    </g>
                    <g transform="matrix(0.451465,0,0,0.381716,395.336,521.949)">
                        <path d="M140.287,275.499L134.136,275.499L134.136,493.849C134.136,523.065 118.76,538.442 92.619,543.055L94.157,549.206C123.373,543.055 140.287,526.141 140.287,493.849L140.287,275.499Z" style="fill-rule:nonzero;"/>
                    </g>
                    <g transform="matrix(0.451465,0,0,0.451465,390.336,503.774)">
                        <path d="M201.794,387.75C201.794,453.87 252.538,504.613 314.045,504.613C375.552,504.613 426.295,453.87 426.295,387.75C426.295,321.629 375.552,270.886 314.045,270.886C252.538,270.886 201.794,321.629 201.794,387.75ZM207.945,387.75C207.945,324.705 255.613,277.037 314.045,277.037C372.476,277.037 420.144,324.705 420.144,387.75C420.144,450.794 372.476,498.462 314.045,498.462C255.613,498.462 207.945,450.794 207.945,387.75Z" style="fill-rule:nonzero;"/>
                    </g>
                    <g transform="matrix(0.643938,0,0,0.611567,416.659,580.894)">
                        <circle cx="294.887" cy="160.139" r="7.056"/>
                    </g>
                    <g transform="matrix(0.643938,0,0,0.611567,225.22,580.894)">
                        <circle cx="294.887" cy="160.139" r="7.056"/>
                    </g>
                </g>
                <g transform="matrix(1,0,0,1,66.1752,-188.125)">
                    <path d="M2653.04,2580.01C2649.28,2585.09 2644.94,2588.73 2640.01,2590.94C2635.07,2593.15 2629.73,2594.25 2623.99,2594.25C2618.03,2594.25 2612.56,2593.24 2607.59,2591.22C2602.62,2589.19 2598.37,2586.36 2594.84,2582.71C2591.3,2579.07 2588.54,2574.72 2586.55,2569.68C2584.56,2564.64 2583.57,2559.13 2583.57,2553.17C2583.57,2547.21 2584.56,2541.72 2586.55,2536.71C2588.54,2531.71 2591.3,2527.38 2594.84,2523.74C2598.37,2520.09 2602.62,2517.24 2607.59,2515.18C2612.56,2513.12 2618.03,2512.09 2623.99,2512.09C2629.29,2512.09 2634.24,2513.03 2638.85,2514.9C2643.45,2516.78 2647.48,2519.93 2650.94,2524.35L2644.97,2529.32C2642.55,2525.63 2639.43,2522.95 2635.64,2521.25C2631.85,2519.56 2627.97,2518.71 2623.99,2518.71C2618.91,2518.71 2614.33,2519.6 2610.24,2521.36C2606.16,2523.13 2602.68,2525.56 2599.8,2528.65C2596.93,2531.74 2594.72,2535.39 2593.18,2539.59C2591.63,2543.78 2590.86,2548.31 2590.86,2553.17C2590.86,2558.03 2591.63,2562.56 2593.18,2566.75C2594.72,2570.95 2596.93,2574.6 2599.8,2577.69C2602.68,2580.78 2606.16,2583.21 2610.24,2584.98C2614.33,2586.74 2618.91,2587.63 2623.99,2587.63C2625.98,2587.63 2628.04,2587.39 2630.18,2586.91C2632.31,2586.43 2634.39,2585.69 2636.42,2584.7C2638.44,2583.71 2640.37,2582.45 2642.21,2580.95C2644.05,2579.44 2645.67,2577.61 2647.07,2575.48L2653.04,2580.01Z" style="fill-rule:nonzero;"/>
                    <path d="M2661.32,2553.17C2661.32,2547.21 2662.31,2541.72 2664.3,2536.71C2666.29,2531.71 2669.05,2527.38 2672.59,2523.74C2676.12,2520.09 2680.37,2517.24 2685.34,2515.18C2690.31,2513.12 2695.78,2512.09 2701.74,2512.09C2707.7,2512.09 2713.17,2513.12 2718.14,2515.18C2723.11,2517.24 2727.36,2520.09 2730.9,2523.74C2734.43,2527.38 2737.19,2531.71 2739.18,2536.71C2741.17,2541.72 2742.16,2547.21 2742.16,2553.17C2742.16,2559.13 2741.17,2564.64 2739.18,2569.68C2737.19,2574.72 2734.43,2579.07 2730.9,2582.71C2727.36,2586.36 2723.11,2589.19 2718.14,2591.22C2713.17,2593.24 2707.7,2594.25 2701.74,2594.25C2695.78,2594.25 2690.31,2593.24 2685.34,2591.22C2680.37,2589.19 2676.12,2586.36 2672.59,2582.71C2669.05,2579.07 2666.29,2574.72 2664.3,2569.68C2662.31,2564.64 2661.32,2559.13 2661.32,2553.17ZM2668.61,2553.17C2668.61,2558.03 2669.38,2562.56 2670.93,2566.75C2672.47,2570.95 2674.68,2574.6 2677.55,2577.69C2680.43,2580.78 2683.91,2583.21 2687.99,2584.98C2692.08,2586.74 2696.66,2587.63 2701.74,2587.63C2706.82,2587.63 2711.41,2586.74 2715.49,2584.98C2719.58,2583.21 2723.06,2580.78 2725.93,2577.69C2728.8,2574.6 2731.01,2570.95 2732.55,2566.75C2734.1,2562.56 2734.87,2558.03 2734.87,2553.17C2734.87,2548.31 2734.1,2543.78 2732.55,2539.59C2731.01,2535.39 2728.8,2531.74 2725.93,2528.65C2723.06,2525.56 2719.58,2523.13 2715.49,2521.36C2711.41,2519.6 2706.82,2518.71 2701.74,2518.71C2696.66,2518.71 2692.08,2519.6 2687.99,2521.36C2683.91,2523.13 2680.43,2525.56 2677.55,2528.65C2674.68,2531.74 2672.47,2535.39 2670.93,2539.59C2669.38,2543.78 2668.61,2548.31 2668.61,2553.17Z" style="fill-rule:nonzero;"/>
                    <path d="M2757.73,2514.07L2768.67,2514.07L2797.16,2579.68L2825.66,2514.07L2836.04,2514.07L2836.04,2592.27L2828.75,2592.27L2828.75,2523.35L2828.53,2523.35L2798.71,2592.27L2795.51,2592.27L2765.24,2523.35L2765.02,2523.35L2765.02,2592.27L2757.73,2592.27L2757.73,2514.07Z" style="fill-rule:nonzero;"/>
                    <rect x="2856.69" y="2514.07" width="7.289" height="78.192" style="fill-rule:nonzero;"/>
                    <path d="M2885.4,2514.07L2894.79,2514.07L2942.39,2582.55L2942.61,2582.55L2942.61,2514.07L2949.9,2514.07L2949.9,2592.27L2940.51,2592.27L2892.91,2523.79L2892.69,2523.79L2892.69,2592.27L2885.4,2592.27L2885.4,2514.07Z" style="fill-rule:nonzero;"/>
                    <path d="M3035.82,2587.18C3031.26,2589.76 3026.53,2591.59 3021.63,2592.65C3016.74,2593.72 3011.75,2594.25 3006.67,2594.25C3000.7,2594.25 2995.24,2593.24 2990.27,2591.22C2985.3,2589.19 2981.05,2586.36 2977.51,2582.71C2973.98,2579.07 2971.22,2574.72 2969.23,2569.68C2967.24,2564.64 2966.25,2559.13 2966.25,2553.17C2966.25,2547.21 2967.24,2541.72 2969.23,2536.71C2971.22,2531.71 2973.98,2527.38 2977.51,2523.74C2981.05,2520.09 2985.3,2517.24 2990.27,2515.18C2995.24,2513.12 3000.7,2512.09 3006.67,2512.09C3018.3,2512.09 3027.69,2515.69 3034.83,2522.91L3029.53,2528.43C3028.35,2527.03 3026.9,2525.72 3025.17,2524.51C3023.43,2523.3 3021.56,2522.26 3019.53,2521.42C3017.51,2520.57 3015.39,2519.91 3013.18,2519.43C3010.97,2518.95 3008.8,2518.71 3006.67,2518.71C3001.59,2518.71 2997,2519.6 2992.92,2521.36C2988.83,2523.13 2985.35,2525.56 2982.48,2528.65C2979.61,2531.74 2977.4,2535.39 2975.85,2539.59C2974.31,2543.78 2973.53,2548.31 2973.53,2553.17C2973.53,2558.03 2974.31,2562.56 2975.85,2566.75C2977.4,2570.95 2979.61,2574.6 2982.48,2577.69C2985.35,2580.78 2988.83,2583.21 2992.92,2584.98C2997,2586.74 3001.59,2587.63 3006.67,2587.63C3010.86,2587.63 3014.8,2587.3 3018.48,2586.63C3022.16,2585.97 3025.51,2584.76 3028.53,2582.99L3028.53,2556.7L3009.76,2556.7L3009.76,2550.08L3035.82,2550.08L3035.82,2587.18Z" style="fill-rule:nonzero;"/>
                    <path d="M3088.06,2577.8C3089.98,2581.11 3092.46,2583.58 3095.52,2585.2C3098.57,2586.82 3102.05,2587.63 3105.95,2587.63C3108.38,2587.63 3110.66,2587.26 3112.8,2586.52C3114.93,2585.79 3116.79,2584.76 3118.38,2583.43C3119.96,2582.11 3121.21,2580.5 3122.13,2578.63C3123.05,2576.75 3123.51,2574.63 3123.51,2572.28C3123.51,2569.55 3122.94,2567.31 3121.8,2565.54C3120.66,2563.77 3119.13,2562.32 3117.22,2561.18C3115.3,2560.03 3113.15,2559.06 3110.76,2558.25C3108.36,2557.44 3105.9,2556.63 3103.36,2555.82C3100.82,2555.01 3098.35,2554.09 3095.96,2553.06C3093.57,2552.03 3091.41,2550.68 3089.5,2549.03C3087.58,2547.37 3086.06,2545.29 3084.91,2542.79C3083.77,2540.28 3083.2,2537.19 3083.2,2533.51C3083.2,2530.05 3083.88,2526.98 3085.24,2524.29C3086.61,2521.6 3088.45,2519.36 3090.77,2517.55C3093.09,2515.75 3095.76,2514.39 3098.77,2513.47C3101.79,2512.55 3104.96,2512.09 3108.27,2512.09C3112.54,2512.09 3116.5,2512.84 3120.14,2514.35C3123.79,2515.86 3126.94,2518.38 3129.59,2521.91L3123.29,2526.44C3121.45,2523.87 3119.3,2521.93 3116.83,2520.64C3114.37,2519.36 3111.44,2518.71 3108.05,2518.71C3105.7,2518.71 3103.45,2519.03 3101.31,2519.65C3099.18,2520.28 3097.32,2521.2 3095.74,2522.41C3094.15,2523.63 3092.88,2525.16 3091.93,2526.99C3090.97,2528.84 3090.49,2531.01 3090.49,2533.51C3090.49,2537.41 3091.49,2540.41 3093.47,2542.51C3095.46,2544.61 3097.95,2546.27 3100.93,2547.48C3103.91,2548.7 3107.15,2549.76 3110.65,2550.68C3114.14,2551.61 3117.38,2552.84 3120.37,2554.39C3123.35,2555.93 3125.83,2558.08 3127.82,2560.85C3129.81,2563.61 3130.8,2567.42 3130.8,2572.28C3130.8,2575.81 3130.14,2578.94 3128.81,2581.66C3127.49,2584.39 3125.7,2586.69 3123.46,2588.57C3121.21,2590.44 3118.62,2591.86 3115.67,2592.82C3112.73,2593.78 3109.67,2594.25 3106.51,2594.25C3101.35,2594.25 3096.6,2593.35 3092.26,2591.55C3087.91,2589.74 3084.2,2586.71 3081.1,2582.44L3088.06,2577.8Z" style="fill-rule:nonzero;"/>
                    <path d="M3142.29,2553.17C3142.29,2547.21 3143.28,2541.72 3145.27,2536.71C3147.26,2531.71 3150.02,2527.38 3153.55,2523.74C3157.09,2520.09 3161.34,2517.24 3166.31,2515.18C3171.28,2513.12 3176.74,2512.09 3182.71,2512.09C3188.67,2512.09 3194.14,2513.12 3199.11,2515.18C3204.08,2517.24 3208.33,2520.09 3211.87,2523.74C3215.4,2527.38 3218.16,2531.71 3220.15,2536.71C3222.14,2541.72 3223.13,2547.21 3223.13,2553.17C3223.13,2559.13 3222.14,2564.64 3220.15,2569.68C3218.16,2574.72 3215.4,2579.07 3211.87,2582.71C3208.33,2586.36 3204.08,2589.19 3199.11,2591.22C3194.14,2593.24 3188.67,2594.25 3182.71,2594.25C3176.74,2594.25 3171.28,2593.24 3166.31,2591.22C3161.34,2589.19 3157.09,2586.36 3153.55,2582.71C3150.02,2579.07 3147.26,2574.72 3145.27,2569.68C3143.28,2564.64 3142.29,2559.13 3142.29,2553.17ZM3149.58,2553.17C3149.58,2558.03 3150.35,2562.56 3151.9,2566.75C3153.44,2570.95 3155.65,2574.6 3158.52,2577.69C3161.39,2580.78 3164.87,2583.21 3168.96,2584.98C3173.05,2586.74 3177.63,2587.63 3182.71,2587.63C3187.79,2587.63 3192.37,2586.74 3196.46,2584.98C3200.55,2583.21 3204.02,2580.78 3206.89,2577.69C3209.77,2574.6 3211.98,2570.95 3213.52,2566.75C3215.07,2562.56 3215.84,2558.03 3215.84,2553.17C3215.84,2548.31 3215.07,2543.78 3213.52,2539.59C3211.98,2535.39 3209.77,2531.74 3206.89,2528.65C3204.02,2525.56 3200.55,2523.13 3196.46,2521.36C3192.37,2519.6 3187.79,2518.71 3182.71,2518.71C3177.63,2518.71 3173.05,2519.6 3168.96,2521.36C3164.87,2523.13 3161.39,2525.56 3158.52,2528.65C3155.65,2531.74 3153.44,2535.39 3151.9,2539.59C3150.35,2543.78 3149.58,2548.31 3149.58,2553.17Z" style="fill-rule:nonzero;"/>
                    <path d="M3234.39,2553.17C3234.39,2547.21 3235.39,2541.72 3237.38,2536.71C3239.37,2531.71 3242.13,2527.38 3245.66,2523.74C3249.19,2520.09 3253.45,2517.24 3258.42,2515.18C3263.39,2513.12 3268.85,2512.09 3274.82,2512.09C3280.78,2512.09 3286.25,2513.12 3291.22,2515.18C3296.19,2517.24 3300.44,2520.09 3303.97,2523.74C3307.51,2527.38 3310.27,2531.71 3312.26,2536.71C3314.24,2541.72 3315.24,2547.21 3315.24,2553.17C3315.24,2559.13 3314.24,2564.64 3312.26,2569.68C3310.27,2574.72 3307.51,2579.07 3303.97,2582.71C3300.44,2586.36 3296.19,2589.19 3291.22,2591.22C3286.25,2593.24 3280.78,2594.25 3274.82,2594.25C3268.85,2594.25 3263.39,2593.24 3258.42,2591.22C3253.45,2589.19 3249.19,2586.36 3245.66,2582.71C3242.13,2579.07 3239.37,2574.72 3237.38,2569.68C3235.39,2564.64 3234.39,2559.13 3234.39,2553.17ZM3241.68,2553.17C3241.68,2558.03 3242.46,2562.56 3244,2566.75C3245.55,2570.95 3247.76,2574.6 3250.63,2577.69C3253.5,2580.78 3256.98,2583.21 3261.07,2584.98C3265.15,2586.74 3269.74,2587.63 3274.82,2587.63C3279.9,2587.63 3284.48,2586.74 3288.57,2584.98C3292.65,2583.21 3296.13,2580.78 3299,2577.69C3301.87,2574.6 3304.08,2570.95 3305.63,2566.75C3307.18,2562.56 3307.95,2558.03 3307.95,2553.17C3307.95,2548.31 3307.18,2543.78 3305.63,2539.59C3304.08,2535.39 3301.87,2531.74 3299,2528.65C3296.13,2525.56 3292.65,2523.13 3288.57,2521.36C3284.48,2519.6 3279.9,2518.71 3274.82,2518.71C3269.74,2518.71 3265.15,2519.6 3261.07,2521.36C3256.98,2523.13 3253.5,2525.56 3250.63,2528.65C3247.76,2531.74 3245.55,2535.39 3244,2539.59C3242.46,2543.78 3241.68,2548.31 3241.68,2553.17Z" style="fill-rule:nonzero;"/>
                    <path d="M3331.58,2514.07L3340.97,2514.07L3388.57,2582.55L3388.79,2582.55L3388.79,2514.07L3396.08,2514.07L3396.08,2592.27L3386.69,2592.27L3339.09,2523.79L3338.87,2523.79L3338.87,2592.27L3331.58,2592.27L3331.58,2514.07Z" style="fill-rule:nonzero;"/>
                </g>
            </g>
        </g>
    </g>
</svg>
